<svg width="20" height="20" fill="none" xmlns="http://www.w3.org/2000/svg"><path d="M19.873 9.611c-.179-.244-4.436-5.985-9.873-5.985-5.437 0-9.695 5.74-9.873 5.985a.66.66 0 000 .778c.178.244 4.436 5.985 9.873 5.985 5.437 0 9.694-5.74 9.873-5.985a.66.66 0 000-.778zM10 15.055c-4.005 0-7.474-3.81-8.5-5.055C2.524 8.753 5.985 4.945 10 4.945c4.005 0 7.473 3.81 8.5 5.056-1.025 1.246-4.486 5.054-8.5 5.054z" fill="#9599A9"/><path d="M9.999 6.044A3.96 3.96 0 006.043 10a3.96 3.96 0 003.956 3.956A3.96 3.96 0 0013.955 10 3.96 3.96 0 0010 6.044zm0 6.593A2.64 2.64 0 017.362 10a2.64 2.64 0 012.637-2.637A2.64 2.64 0 0112.636 10 2.64 2.64 0 0110 12.637z" fill="#9599A9"/></svg>