<svg width="17" height="16" fill="none" xmlns="http://www.w3.org/2000/svg"><path d="M15.913 1.388H6.046A2.039 2.039 0 004.117 0a2.04 2.04 0 00-1.93 1.388H.648a.648.648 0 000 1.295h1.54a2.039 2.039 0 001.93 1.388 2.04 2.04 0 001.93-1.388h9.866a.648.648 0 100-1.295zM4.117 2.775a.74.74 0 11.002-1.481.74.74 0 01-.002 1.481zm11.796 4.164h-1.54a2.039 2.039 0 00-1.93-1.388 2.04 2.04 0 00-1.929 1.388H.648a.648.648 0 000 1.295h9.866a2.039 2.039 0 001.93 1.388c.895 0 1.658-.582 1.929-1.388h1.54a.648.648 0 100-1.295zm-3.47 1.387a.74.74 0 11.002-1.481.74.74 0 01-.001 1.481zm3.47 4.164H8.822a2.039 2.039 0 00-1.93-1.388 2.04 2.04 0 00-1.929 1.388H.648a.648.648 0 000 1.295h4.315a2.039 2.039 0 001.93 1.388c.896 0 1.658-.582 1.929-1.388h7.09a.648.648 0 100-1.295zm-9.02 1.387a.74.74 0 11.001-1.481.74.74 0 01-.001 1.481z" fill="#fff"/></svg>