<svg version="1.0" xmlns="http://www.w3.org/2000/svg" width="725.333" height="725.333" viewBox="0 0 544 544"><path d="M464.2 17.6c-21 4.9-38.5 22.6-42.7 43.2-3.8 18.5 1.6 35.6 15.4 49.2 6.9 6.9 17.2 13.3 23 14.5.9.2 3.6.8 6.1 1.4 9.1 2.1 30.1.3 33.4-3 .6-.5 1.6-.9 2.3-.9 2.3 0 13.6-7.7 17.9-12.2C533.8 95 538.8 75.1 533 56c-5.5-18.5-21.3-33.2-41.2-38.3-6.9-1.8-20.3-1.9-27.6-.1zm-249.5 66c-.1.1-3.1.5-6.5.8-10.8 1-14.4 1.5-24.7 3.6-10.4 2.1-13 2.7-13 3 0 .1-1 .3-2.2.6-3.2.6-23 7.2-27.2 9.1-17.3 7.6-40 20-46.3 25.1-.7.7-5.8 4.7-11.3 9C73.1 143 59.1 156.5 53 164c-1.9 2.4-4.7 5.8-6.1 7.5-10 11.4-27.8 43.1-33.3 59-1 2.7-2 5.7-2.3 6.5-.4.8-.7 1.8-.8 2.2-.2.5-.3.9-.5 1-.1.2-.3 1-.5 1.8-.1.8-1 4-1.9 7.1-1.7 5.9-2.5 9.1-3 12.4-.2 1.1-.6 3.3-.9 5-.4 1.6-.9 4.8-1.2 7-.2 2.2-.8 5.1-1.1 6.5-1 4.1-1.3 42-.3 48 .5 3 1.1 7.6 1.4 10.1.3 2.5.8 5.6 1 7 .3 1.3.7 3.5 1 4.9.3 1.4 1.2 5 2 8 .9 3 1.8 6.4 2 7.4.8 3.3 3.7 11.8 6.6 19.3C18 392 27 411.1 28.1 412c.3.3 2 3.2 3.9 6.5s3.6 6.2 3.9 6.5c.3.3 2.1 2.7 4 5.5 17 24.6 44 49.4 71.1 65.1 11.4 6.7 26.2 13.9 29.3 14.3.4 0 2 .7 3.6 1.5 6 3.2 31.2 10.7 40.6 12.2 1.1.2 4.7.7 8 1.3 12.9 2.2 18.7 2.6 37.5 2.6 19.2 0 27.1-.5 38-2.5 3-.5 7-1.2 8.8-1.5 6.7-1.1 22.2-5.3 27.7-7.5 1.7-.6 3.1-1.1 3.3-1 1.5.8 29.8-12 40.5-18.3 4.3-2.6 8.1-4.7 8.3-4.7.3 0 1-.5 1.7-1 .7-.6 4.9-3.6 9.3-6.8 22.4-15.7 43.3-37.6 58.8-61.4 4.7-7.3 17.1-30.1 17.7-32.6.1-.4.6-1.8 1.1-3.2 1.4-3.4 6.9-19.1 7.4-21 1.7-6.3 5.5-23.3 5.9-27 1.2-8.8 1.6-11.5 2-15.5.8-7.2.4-38-.5-38 0 0-.3-2.3-.5-5-.5-5.8-1.2-10.9-2-14.5-.3-1.4-.8-3.8-1.1-5.4-.2-1.6-.7-3.2-.9-3.6-.2-.4-.7-2.2-1-4.1-2.9-16.5-17.1-48.6-29.8-66.9-2.1-3-4.5-6.6-5.4-8-.9-1.4-4.9-6.3-8.7-11-20.3-24.3-44.5-43.6-72.9-57.9-16.2-8.2-32.4-14.7-41.2-16.6-1.1-.2-4.7-1.1-7.9-2-8.9-2.5-21.2-4.6-34.1-6.1-5.6-.6-39.3-1.3-39.8-.8zm28.7 58.8c6 .4 11.2.8 11.5 1 .3.2 2.9.7 5.6 1 12.5 1.7 32.5 8.2 46.4 15 34.1 16.9 59.9 42.2 76.7 75.5 3 5.8 5.4 11.3 5.4 12.1 0 .9.4 2 .9 2.5.8.9 3.4 8.3 4.6 13.1 1.7 6.3 4.6 20.6 5 24.4 1 8.6 1.2 24.5.3 26.2-.6 1.2-.5 1.8.2 1.8.6 0 .9.3.7.7-.3.5-.8 3.2-1.1 6.2-2.7 24.3-11.5 50.1-22.8 66.8-1.5 2.3-2.8 4.4-2.8 4.8 0 .3-.5 1.1-1 1.8-.6.7-3.7 4.6-6.9 8.7-6.5 8.5-16.9 19.2-25.2 26.2-6.6 5.5-26.8 18.8-28.6 18.8-.7 0-1.3.4-1.3 1 0 .5-.5 1-1.1 1-.6 0-4 1.3-7.6 3-3.5 1.6-6.7 3-7 3-.3 0-1.9.7-3.6 1.5-3.3 1.5-19.1 6.2-23.6 7-1.4.2-5.1.9-8.1 1.5-13.8 2.8-42.9 3.1-54.5.6-1.1-.2-4.2-.7-6.9-1-2.7-.4-5.2-.9-5.6-1.1-.4-.2-1.7-.6-3.1-.9-3.4-.7-13.2-3.5-17.4-5-35-12.6-64.1-35.1-84.5-65.1-14.3-21.1-23.4-46.1-26.5-72.5-.8-6.9-.9-26.1-.1-31.8.3-2.3.8-6.1 1.1-8.5 1-7.4 5.6-24.9 8.7-32.7 3.8-9.5 11.7-25.4 12.9-25.8.5-.2.9-.8.9-1.3 0-1.1 5.6-9.3 10.8-15.9 6.9-8.6 18.8-20.3 27.7-27.1 5-3.8 9.5-7.3 10-7.7 3.1-2.4 22.7-13.4 24.5-13.7.3 0 1.4-.6 2.5-1.1 1.1-.6 5.6-2.3 10-3.9 4.4-1.5 8.7-3 9.5-3.3.8-.3 2-.6 2.5-.7.6-.2 2.8-.7 5-1.3 4.2-1.2 7.6-1.8 13.5-2.8 1.9-.3 4.6-.7 6-1 1.4-.2 6.1-.6 10.5-1 4.4-.3 8.1-.7 8.2-.8.2-.2 3.2 0 17.7.8z"/></svg>