<svg width="20" height="20" viewBox="0 0 20 20" fill="none" xmlns="http://www.w3.org/2000/svg">
<path d="M19.8729 9.611C19.6942 9.36659 15.4371 3.62638 9.9999 3.62638C4.56274 3.62638 0.305391 9.36659 0.126914 9.61077C-0.0423048 9.84264 -0.0423048 10.1571 0.126914 10.389C0.305391 10.6334 4.56274 16.3736 9.9999 16.3736C15.4371 16.3736 19.6942 10.6334 19.8729 10.3892C20.0423 10.1574 20.0423 9.84264 19.8729 9.611ZM9.9999 15.055C5.99486 15.055 2.52606 11.2451 1.49922 9.99956C2.52473 8.75295 5.98626 4.94506 9.9999 4.94506C14.0048 4.94506 17.4733 8.75428 18.5006 10.0005C17.4751 11.247 14.0135 15.055 9.9999 15.055Z" fill="#9599A9"/>
<path d="M9.99903 6.04396C7.8177 6.04396 6.04297 7.81869 6.04297 10C6.04297 12.1814 7.8177 13.9561 9.99903 13.9561C12.1804 13.9561 13.9551 12.1814 13.9551 10C13.9551 7.81869 12.1804 6.04396 9.99903 6.04396ZM9.99903 12.6374C8.54473 12.6374 7.36168 11.4543 7.36168 10C7.36168 8.54576 8.54477 7.36267 9.99903 7.36267C11.4533 7.36267 12.6364 8.54576 12.6364 10C12.6364 11.4543 11.4533 12.6374 9.99903 12.6374Z" fill="#9599A9"/>
</svg>
