<svg width="17" height="16" viewBox="0 0 17 16" fill="none" xmlns="http://www.w3.org/2000/svg">
<path d="M15.9129 1.38775H6.04638C5.77512 0.582103 5.01309 3.05176e-05 4.11714 3.05176e-05C3.22118 3.05176e-05 2.45915 0.582103 2.18789 1.38775H0.647803C0.290043 1.38775 0 1.6778 0 2.03556C0 2.39332 0.290043 2.68336 0.647803 2.68336H2.18793C2.45919 3.48901 3.22122 4.07109 4.11718 4.07109C5.01313 4.07109 5.77517 3.48901 6.04642 2.68336H15.9129C16.2707 2.68336 16.5607 2.39332 16.5607 2.03556C16.5607 1.6778 16.2707 1.38775 15.9129 1.38775ZM4.11714 2.77548C3.70915 2.77548 3.37721 2.44354 3.37721 2.03556C3.37721 1.62757 3.70915 1.29564 4.11714 1.29564C4.52512 1.29564 4.85706 1.62757 4.85706 2.03556C4.85706 2.44354 4.52512 2.77548 4.11714 2.77548Z" fill="white"/>
<path d="M15.9129 6.93869H14.3728C14.1015 6.13304 13.3394 5.55096 12.4435 5.55096C11.5476 5.55096 10.7856 6.13304 10.5143 6.93869H0.647803C0.290043 6.93869 0 7.22873 0 7.58649C0 7.94425 0.290043 8.23429 0.647803 8.23429H10.5143C10.7856 9.03995 11.5477 9.62202 12.4436 9.62202C13.3395 9.62202 14.1016 9.03995 14.3728 8.23429H15.9129C16.2707 8.23429 16.5607 7.94425 16.5607 7.58649C16.5607 7.22873 16.2707 6.93869 15.9129 6.93869ZM12.4436 8.32641C12.0356 8.32641 11.7036 7.99448 11.7036 7.58649C11.7036 7.17851 12.0356 6.84657 12.4436 6.84657C12.8516 6.84657 13.1835 7.17851 13.1835 7.58649C13.1835 7.99448 12.8516 8.32641 12.4436 8.32641Z" fill="white"/>
<path d="M15.9129 12.4896H8.82187C8.55061 11.684 7.78858 11.1019 6.89263 11.1019C5.99667 11.1019 5.23464 11.684 4.96338 12.4896H0.647803C0.290043 12.4896 0 12.7797 0 13.1374C0 13.4952 0.290043 13.7852 0.647803 13.7852H4.96338C5.23464 14.5909 5.99667 15.173 6.89263 15.173C7.78858 15.173 8.55061 14.5909 8.82187 13.7852H15.9129C16.2707 13.7852 16.5607 13.4952 16.5607 13.1374C16.5607 12.7797 16.2707 12.4896 15.9129 12.4896ZM6.89263 13.8774C6.48464 13.8774 6.15271 13.5455 6.15271 13.1375C6.15271 12.7295 6.48464 12.3976 6.89263 12.3976C7.30061 12.3976 7.63255 12.7295 7.63255 13.1374C7.63255 13.5454 7.30061 13.8774 6.89263 13.8774Z" fill="white"/>
</svg>
