<svg width="99" height="22" viewBox="0 0 99 22" fill="none" xmlns="http://www.w3.org/2000/svg">
<path d="M9.77312 21.817C4.59135 21.817 0.375977 17.6727 0.375977 12.5785C0.375977 7.48425 4.59135 3.34009 9.77312 3.34009C14.9549 3.34009 19.1702 7.48425 19.1702 12.5785C19.1702 17.6727 14.9549 21.817 9.77312 21.817ZM9.77312 5.77119C5.95521 5.77119 2.84886 8.82506 2.84886 12.5785C2.84886 16.3319 5.95521 19.3858 9.77312 19.3858C13.591 19.3858 16.6973 16.3319 16.6973 12.5785C16.6973 8.82506 13.591 5.77119 9.77312 5.77119Z" fill="#FFD600"/>
<path d="M19.8511 5.16372C21.1484 5.16372 22.2001 4.12974 22.2001 2.85428C22.2001 1.57887 21.1484 0.544922 19.8511 0.544922C18.5537 0.544922 17.502 1.57887 17.502 2.85428C17.502 4.12974 18.5537 5.16372 19.8511 5.16372Z" fill="#FFD600"/>
<path d="M46.9963 20.4566V17.9397H39.2257L47.1881 4.86722V4.49023H35.0414V6.99607H42.4851L34.4775 20.0907V20.4566H46.9963ZM53.7313 17.9508V13.4381H60.1486V10.9322H53.7313V6.99607H61.502V4.49023H51.0133V20.4566H61.502V17.9508H53.7313ZM68.0538 20.4566V13.804H73.7605V11.1429H68.0538V7.16239H75.1139V4.49023H65.3357V20.4566H68.0538ZM81.214 20.4566V4.49023H78.496V20.4566H81.214ZM94.799 14.0368C96.8742 13.2496 97.8666 11.287 97.8666 9.44647C97.8666 6.94063 96.5471 5.01136 93.7275 4.57894C93.3102 4.51241 92.7463 4.49023 92.4305 4.49023H85.72V20.4566H88.4381V14.4027H91.9117L95.1035 20.4566H98.1824L94.799 14.0368ZM92.3178 6.99607C92.6223 6.99607 93.0283 7.01825 93.3441 7.09586C94.6975 7.43958 95.126 8.55944 95.126 9.44647C95.126 10.3335 94.6975 11.2649 93.3441 11.7971C93.0396 11.919 92.6223 11.8969 92.3178 11.8969H88.4381V6.99607H92.3178Z" fill="#ECEBEC"/>
</svg>
