<svg width="99" height="22" fill="none" xmlns="http://www.w3.org/2000/svg"><path d="M9.773 21.817c-5.182 0-9.397-4.144-9.397-9.239 0-5.094 4.215-9.238 9.397-9.238s9.397 4.144 9.397 9.239c0 5.094-4.215 9.238-9.397 9.238zm0-16.046c-3.818 0-6.924 3.054-6.924 6.808 0 3.753 3.106 6.807 6.924 6.807 3.818 0 6.924-3.054 6.924-6.807 0-3.754-3.106-6.808-6.924-6.808zm10.078-.607c1.297 0 2.35-1.034 2.35-2.31 0-1.275-1.053-2.31-2.35-2.31-1.297 0-2.349 1.035-2.349 2.31 0 1.276 1.052 2.31 2.35 2.31z" fill="#FFD600"/><path d="M46.996 20.457V17.94h-7.77l7.962-13.073V4.49H35.041v2.506h7.444l-8.008 13.095v.366h12.52zm6.735-2.506v-4.513h6.418v-2.506H53.73V6.996h7.771V4.49H51.013v15.967h10.489V17.95h-7.77zm14.323 2.506v-6.653h5.706v-2.661h-5.706v-3.98h7.06V4.49h-9.778v15.967h2.718zm13.16 0V4.49h-2.718v15.967h2.718zm13.585-6.42c2.075-.787 3.068-2.75 3.068-4.59 0-2.506-1.32-4.436-4.14-4.868a9.452 9.452 0 00-1.297-.089h-6.71v15.967h2.718v-6.054h3.474l3.191 6.054h3.08l-3.384-6.42zm-2.481-7.04c.304 0 .71.021 1.026.099 1.354.344 1.782 1.463 1.782 2.35 0 .888-.428 1.819-1.782 2.351-.304.122-.722.1-1.026.1h-3.88v-4.9h3.88z" fill="#ECEBEC"/></svg>