<?xml version="1.0" encoding="UTF-8"?><!DOCTYPE svg PUBLIC "-//W3C//DTD SVG 1.1//EN" "http://www.w3.org/Graphics/SVG/1.1/DTD/svg11.dtd"><svg xmlns="http://www.w3.org/2000/svg" xmlns:xlink="http://www.w3.org/1999/xlink"><defs><clipPath id="clip0"><path fill="#fff" transform="translate(.778 .583)" d="M0 0h10.833v10.833H0z"/></clipPath></defs><symbol id="arrow-down" viewBox="0 0 12 7">
<path d="M1 1.17273L6 6.17273L11 1.17273" stroke="#22232F" stroke-width="1.5" stroke-linecap="round" stroke-linejoin="round"/>
</symbol><symbol id="eye-icon" viewBox="0 0 20 20">
<path d="M19.8729 9.611C19.6942 9.36659 15.4371 3.62638 9.9999 3.62638C4.56274 3.62638 0.305391 9.36659 0.126914 9.61077C-0.0423048 9.84264 -0.0423048 10.1571 0.126914 10.389C0.305391 10.6334 4.56274 16.3736 9.9999 16.3736C15.4371 16.3736 19.6942 10.6334 19.8729 10.3892C20.0423 10.1574 20.0423 9.84264 19.8729 9.611ZM9.9999 15.055C5.99486 15.055 2.52606 11.2451 1.49922 9.99956C2.52473 8.75295 5.98626 4.94506 9.9999 4.94506C14.0048 4.94506 17.4733 8.75428 18.5006 10.0005C17.4751 11.247 14.0135 15.055 9.9999 15.055Z" fill="#9599A9"/>
<path d="M9.99903 6.04396C7.8177 6.04396 6.04297 7.81869 6.04297 10C6.04297 12.1814 7.8177 13.9561 9.99903 13.9561C12.1804 13.9561 13.9551 12.1814 13.9551 10C13.9551 7.81869 12.1804 6.04396 9.99903 6.04396ZM9.99903 12.6374C8.54473 12.6374 7.36168 11.4543 7.36168 10C7.36168 8.54576 8.54477 7.36267 9.99903 7.36267C11.4533 7.36267 12.6364 8.54576 12.6364 10C12.6364 11.4543 11.4533 12.6374 9.99903 12.6374Z" fill="#9599A9"/>
</symbol><symbol id="info-icon" viewBox="0 0 24 24">
<path d="M13 8V6h-2v2h2zM13 18v-8h-2v8h2z" fill="currentColor"/>
<path fill-rule="evenodd" clip-rule="evenodd" d="M22 12c0-5.523-4.477-10-10-10S2 6.477 2 12s4.477 10 10 10 10-4.477 10-10zm-2 0a8 8 0 10-16 0 8 8 0 0016 0z" fill="currentColor"/>
</symbol><symbol id="line-icon" viewBox="0 0 20 15">
<rect x="0.690196" y="12.6872" width="20.5996" height="2.18664" rx="1.09332" transform="rotate(-34.4211 0.690196 12.6872)" fill="#9599A9" stroke="white" stroke-width="0.7"/>
</symbol><symbol id="settings-icon" viewBox="0 0 17 16">
<path d="M15.9129 1.38775H6.04638C5.77512 0.582103 5.01309 3.05176e-05 4.11714 3.05176e-05C3.22118 3.05176e-05 2.45915 0.582103 2.18789 1.38775H0.647803C0.290043 1.38775 0 1.6778 0 2.03556C0 2.39332 0.290043 2.68336 0.647803 2.68336H2.18793C2.45919 3.48901 3.22122 4.07109 4.11718 4.07109C5.01313 4.07109 5.77517 3.48901 6.04642 2.68336H15.9129C16.2707 2.68336 16.5607 2.39332 16.5607 2.03556C16.5607 1.6778 16.2707 1.38775 15.9129 1.38775ZM4.11714 2.77548C3.70915 2.77548 3.37721 2.44354 3.37721 2.03556C3.37721 1.62757 3.70915 1.29564 4.11714 1.29564C4.52512 1.29564 4.85706 1.62757 4.85706 2.03556C4.85706 2.44354 4.52512 2.77548 4.11714 2.77548Z" fill="white"/>
<path d="M15.9129 6.93869H14.3728C14.1015 6.13304 13.3394 5.55096 12.4435 5.55096C11.5476 5.55096 10.7856 6.13304 10.5143 6.93869H0.647803C0.290043 6.93869 0 7.22873 0 7.58649C0 7.94425 0.290043 8.23429 0.647803 8.23429H10.5143C10.7856 9.03995 11.5477 9.62202 12.4436 9.62202C13.3395 9.62202 14.1016 9.03995 14.3728 8.23429H15.9129C16.2707 8.23429 16.5607 7.94425 16.5607 7.58649C16.5607 7.22873 16.2707 6.93869 15.9129 6.93869ZM12.4436 8.32641C12.0356 8.32641 11.7036 7.99448 11.7036 7.58649C11.7036 7.17851 12.0356 6.84657 12.4436 6.84657C12.8516 6.84657 13.1835 7.17851 13.1835 7.58649C13.1835 7.99448 12.8516 8.32641 12.4436 8.32641Z" fill="white"/>
<path d="M15.9129 12.4896H8.82187C8.55061 11.684 7.78858 11.1019 6.89263 11.1019C5.99667 11.1019 5.23464 11.684 4.96338 12.4896H0.647803C0.290043 12.4896 0 12.7797 0 13.1374C0 13.4952 0.290043 13.7852 0.647803 13.7852H4.96338C5.23464 14.5909 5.99667 15.173 6.89263 15.173C7.78858 15.173 8.55061 14.5909 8.82187 13.7852H15.9129C16.2707 13.7852 16.5607 13.4952 16.5607 13.1374C16.5607 12.7797 16.2707 12.4896 15.9129 12.4896ZM6.89263 13.8774C6.48464 13.8774 6.15271 13.5455 6.15271 13.1375C6.15271 12.7295 6.48464 12.3976 6.89263 12.3976C7.30061 12.3976 7.63255 12.7295 7.63255 13.1374C7.63255 13.5454 7.30061 13.8774 6.89263 13.8774Z" fill="white"/>
</symbol><symbol id="star-icon" viewBox="0 0 16 16">
<path d="M8 0L10.3511 4.76393L15.6085 5.52786L11.8042 9.23607L12.7023 14.4721L8 12L3.29772 14.4721L4.19577 9.23607L0.391548 5.52786L5.64886 4.76393L8 0Z" fill="#FFDD2A"/>
</symbol><symbol id="telegram-icon"><g clip-path="url(#clip0)"><path d="M5.03 7.436l-.18 2.52c.256 0 .367-.11.5-.242l1.203-1.149 2.49 1.824c.457.255.779.12.902-.42l1.635-7.661c.146-.676-.244-.94-.689-.774l-9.61 3.68c-.656.254-.646.62-.111.785l2.457.764 5.707-3.57c.268-.179.512-.08.311.098L5.03 7.436z" fill="#fff"/></g></symbol></svg>