<?xml version="1.0" standalone="no"?>
<!DOCTYPE svg PUBLIC "-//W3C//DTD SVG 20010904//EN"
 "http://www.w3.org/TR/2001/REC-SVG-20010904/DTD/svg10.dtd">
<svg version="1.0" xmlns="http://www.w3.org/2000/svg"
 width="544.000000pt" height="544.000000pt" viewBox="0 0 544.000000 544.000000"
 preserveAspectRatio="xMidYMid meet">
<metadata>
Created by potrace 1.14, written by Peter Selinger 2001-2017
</metadata>
<g transform="translate(0.000000,544.000000) scale(0.100000,-0.100000)"
fill="#000000" stroke="none">
<path d="M4642 5264 c-210 -49 -385 -226 -427 -432 -38 -185 16 -356 154 -492
69 -69 172 -133 230 -145 9 -2 36 -8 61 -14 91 -21 301 -3 334 30 6 5 16 9 23
9 23 0 136 77 179 122 142 148 192 347 134 538 -55 185 -213 332 -412 383 -69
18 -203 19 -276 1z"/>
<path d="M2147 4604 c-1 -1 -31 -5 -65 -8 -108 -10 -144 -15 -247 -36 -104
-21 -130 -27 -130 -30 0 -1 -10 -3 -22 -6 -32 -6 -230 -72 -272 -91 -173 -76
-400 -200 -463 -251 -7 -7 -58 -47 -113 -90 -104 -82 -244 -217 -305 -292 -19
-24 -47 -58 -61 -75 -100 -114 -278 -431 -333 -590 -10 -27 -20 -57 -23 -65
-4 -8 -7 -18 -8 -22 -2 -5 -3 -9 -5 -10 -1 -2 -3 -10 -5 -18 -1 -8 -10 -40
-19 -71 -17 -59 -25 -91 -30 -124 -2 -11 -6 -33 -9 -50 -4 -16 -9 -48 -12 -70
-2 -22 -8 -51 -11 -65 -10 -41 -13 -420 -3 -480 5 -30 11 -76 14 -101 3 -25 8
-56 10 -70 3 -13 7 -35 10 -49 3 -14 12 -50 20 -80 9 -30 18 -64 20 -74 8 -33
37 -118 66 -193 29 -73 119 -264 130 -273 3 -3 20 -32 39 -65 19 -33 36 -62
39 -65 3 -3 21 -27 40 -55 170 -246 440 -494 711 -651 114 -67 262 -139 293
-143 4 0 20 -7 36 -15 60 -32 312 -107 406 -122 11 -2 47 -7 80 -13 129 -22
187 -26 375 -26 192 0 271 5 380 25 30 5 70 12 88 15 67 11 222 53 277 75 17
6 31 11 33 10 15 -8 298 120 405 183 43 26 81 47 83 47 3 0 10 5 17 10 7 6 49
36 93 68 224 157 433 376 588 614 47 73 171 301 177 326 1 4 6 18 11 32 14 34
69 191 74 210 17 63 55 233 59 270 12 88 16 115 20 155 8 72 4 380 -5 380 0 0
-3 23 -5 50 -5 58 -12 109 -20 145 -3 14 -8 38 -11 54 -2 16 -7 32 -9 36 -2 4
-7 22 -10 41 -29 165 -171 486 -298 669 -21 30 -45 66 -54 80 -9 14 -49 63
-87 110 -203 243 -445 436 -729 579 -162 82 -324 147 -412 166 -11 2 -47 11
-79 20 -89 25 -212 46 -341 61 -56 6 -393 13 -398 8z m287 -588 c60 -4 112 -8
115 -10 3 -2 29 -7 56 -10 125 -17 325 -82 464 -150 341 -169 599 -422 767
-755 30 -58 54 -113 54 -121 0 -9 4 -20 9 -25 8 -9 34 -83 46 -131 17 -63 46
-206 50 -244 10 -86 12 -245 3 -262 -6 -12 -5 -18 2 -18 6 0 9 -3 7 -7 -3 -5
-8 -32 -11 -62 -27 -243 -115 -501 -228 -668 -15 -23 -28 -44 -28 -48 0 -3 -5
-11 -10 -18 -6 -7 -37 -46 -69 -87 -65 -85 -169 -192 -252 -262 -66 -55 -268
-188 -286 -188 -7 0 -13 -4 -13 -10 0 -5 -5 -10 -11 -10 -6 0 -40 -13 -76 -30
-35 -16 -67 -30 -70 -30 -3 0 -19 -7 -36 -15 -33 -15 -191 -62 -236 -70 -14
-2 -51 -9 -81 -15 -138 -28 -429 -31 -545 -6 -11 2 -42 7 -69 10 -27 4 -52 9
-56 11 -4 2 -17 6 -31 9 -34 7 -132 35 -174 50 -350 126 -641 351 -845 651
-143 211 -234 461 -265 725 -8 69 -9 261 -1 318 3 23 8 61 11 85 10 74 56 249
87 327 38 95 117 254 129 258 5 2 9 8 9 13 0 11 56 93 108 159 69 86 188 203
277 271 50 38 95 73 100 77 31 24 227 134 245 137 3 0 14 6 25 11 11 6 56 23
100 39 44 15 87 30 95 33 8 3 20 6 25 7 6 2 28 7 50 13 42 12 76 18 135 28 19
3 46 7 60 10 14 2 61 6 105 10 44 3 81 7 82 8 2 2 32 0 177 -8z"/>
</g>
</svg>
